# xmcd CD database file generated by OrangeCD 6.4
#
# Track frame offsets:
#	150
#	15553
#	36324
#	56462
#	76436
#	96762
#	119236
#	138270
#	157921
#	179355
#	195560
#	214553
#	229900
#	249205
#	268855
#	284779
#	316000
#
# Disc length: 4543 seconds
#
# Revision: 0
# Processed by: cddbd v1.5.2PL0 Copyright (c) Steve Scherf et al.
# Submitted via: OrangeCD 6.4
#
DISCID=ed11bd11
DTITLE=Anssi Kela - Singlet 2000-2010
DYEAR=2010
DGENRE=Suomipop
TTITLE0=Vanha biisi
TTITLE1=Nolla
TTITLE2=Milla
TTITLE3=Aamu
TTITLE4=Puistossa
TTITLE5=Jennifer Aniston
TTITLE6=Kaivos
TTITLE7=Kaksi sisarta
TTITLE8=Laulu petetylle
TTITLE9=Karhusaari
TTITLE10=1972
TTITLE11=Älä mene pois
TTITLE12=Mikan faijan BMW
TTITLE13=Rakkaus on murhaa
TTITLE14=Suomalainen
TTITLE15=Suuria kuvioita
TTITLE16=Nummela
EXTD=
EXTT0=
EXTT1=
EXTT2=
EXTT3=
EXTT4=
EXTT5=
EXTT6=
EXTT7=
EXTT8=
EXTT9=
EXTT10=
EXTT11=
EXTT12=
EXTT13=
EXTT14=
EXTT15=
EXTT16=
PLAYORDER=
